<?xml version="1.0" encoding="UTF-8"?>
<svg xmlns="http://www.w3.org/2000/svg" xmlns:xlink="http://www.w3.org/1999/xlink" width="32px" height="32px" viewBox="0 0 32 32" version="1.1">
<g id="surface1">
<path style="fill:white;stroke:#000;stroke-width:2px;fill-rule:nonzero;fill-opacity:1;" d="M 26 13 C 26 15.867188 25.070312 18.519531 23.5 20.667969 L 31.414062 28.585938 C 32.195312 29.367188 32.195312 30.636719 31.414062 31.417969 C 30.632812 32.199219 29.363281 32.199219 28.582031 31.417969 L 20.667969 23.5 C 18.519531 25.074219 15.867188 26 13 26 C 5.820312 26 0 20.179688 0 13 C 0 5.820312 5.820312 0 13 0 C 20.179688 0 26 5.820312 26 13 Z M 13 22 C 17.96875 22 22 17.96875 22 13 C 22 8.03125 17.96875 4 13 4 C 8.03125 4 4 8.03125 4 13 C 4 17.96875 8.03125 22 13 22 Z M 13 22 "/>
</g>
</svg>


